<?xml version="1.0" encoding="UTF-8"?>
<!DOCTYPE svg PUBLIC "-//W3C//DTD SVG 1.1//EN" "http://www.w3.org/Graphics/SVG/1.1/DTD/svg11.dtd">
<svg xmlns="http://www.w3.org/2000/svg" version="1.1" width="192px" height="192px" style="shape-rendering:geometricPrecision; text-rendering:geometricPrecision; image-rendering:optimizeQuality; fill-rule:evenodd; clip-rule:evenodd" xmlns:xlink="http://www.w3.org/1999/xlink">
<g><path style="opacity:0.96" fill="#1de4e4" d="M 113.5,81.5 C 113.665,77.8183 113.499,74.1516 113,70.5C 112.208,67.8936 110.708,65.8936 108.5,64.5C 108.082,63.7784 107.416,63.2784 106.5,63C 97.5062,62.5002 88.5062,62.3336 79.5,62.5C 78.8333,62.5 78.1667,62.5 77.5,62.5C 77.8502,58.3012 79.8502,55.1345 83.5,53C 94.1667,52.3333 104.833,52.3333 115.5,53C 120.119,56.7401 122.119,61.5734 121.5,67.5C 121.793,71.4495 120.96,75.1162 119,78.5C 117.736,80.607 115.903,81.607 113.5,81.5 Z"/></g>
<g><path style="opacity:0.376" fill="#b686ff" d="M 79.5,62.5 C 88.5062,62.3336 97.5062,62.5002 106.5,63C 107.416,63.2784 108.082,63.7784 108.5,64.5C 98.6823,63.9381 89.0156,63.2714 79.5,62.5 Z"/></g>
<g><path style="opacity:0.999" fill="#a263ff" d="M 77.5,62.5 C 78.1667,62.5 78.8333,62.5 79.5,62.5C 89.0156,63.2714 98.6823,63.9381 108.5,64.5C 110.708,65.8936 112.208,67.8936 113,70.5C 113.499,74.1516 113.665,77.8183 113.5,81.5C 113.432,86.0756 111.432,89.5756 107.5,92C 97.4673,92.0051 88.9673,95.5051 82,102.5C 81.5017,99.1832 81.335,95.8499 81.5,92.5C 75.6779,92.8636 71.8445,90.197 70,84.5C 68.8732,78.2453 69.5399,72.2453 72,66.5C 73.4321,64.5612 75.2654,63.2279 77.5,62.5 Z"/></g>
<g><path style="opacity:0.952" fill="#2be7e6" d="M 49.5,108.5 C 58.3167,106.483 62.3167,109.983 61.5,119C 61.5607,120.711 60.8941,122.044 59.5,123C 56.1832,123.498 52.8499,123.665 49.5,123.5C 49.5,118.5 49.5,113.5 49.5,108.5 Z M 53.5,112.5 C 56.7973,112.329 57.1306,112.995 54.5,114.5C 53.7025,114.043 53.3691,113.376 53.5,112.5 Z M 53.5,117.5 C 54.675,117.281 55.675,117.614 56.5,118.5C 54.9483,119.798 53.9483,119.465 53.5,117.5 Z"/></g>
<g><path style="opacity:0.978" fill="#27e6e5" d="M 62.5,108.5 C 63.8333,108.5 65.1667,108.5 66.5,108.5C 66.5,113.5 66.5,118.5 66.5,123.5C 65.1667,123.5 63.8333,123.5 62.5,123.5C 62.5,118.5 62.5,113.5 62.5,108.5 Z"/></g>
<g><path style="opacity:0.993" fill="#3de9e8" d="M 70.5,108.5 C 73.5184,108.335 76.5184,108.502 79.5,109C 81.0488,110.214 82.2155,111.714 83,113.5C 83.6355,112.034 84.4688,110.7 85.5,109.5C 88.8333,108.167 92.1667,108.167 95.5,109.5C 97.2701,110.82 97.6034,112.32 96.5,114C 94.3228,114.345 92.3228,113.845 90.5,112.5C 89.5581,112.608 88.7247,112.941 88,113.5C 86.9096,116.579 87.7429,118.912 90.5,120.5C 91.3081,120.192 91.9747,119.692 92.5,119C 91.0267,118.29 90.3601,117.124 90.5,115.5C 92.8333,115.5 95.1667,115.5 97.5,115.5C 97.5,118.167 97.5,120.833 97.5,123.5C 91.1376,126.039 86.3043,124.373 83,118.5C 80.2653,124.122 76.0986,125.622 70.5,123C 66.5517,118.209 66.5517,113.376 70.5,108.5 Z M 72.5,112.5 C 77.6752,111.507 79.5086,113.507 78,118.5C 76.561,120.014 75.061,120.347 73.5,119.5C 72.5258,117.257 72.1924,114.924 72.5,112.5 Z"/></g>
<g><path style="opacity:0.932" fill="#44e8e7" d="M 98.5,108.5 C 102.106,108.211 105.606,108.544 109,109.5C 110.929,112.246 110.762,114.913 108.5,117.5C 109.083,119.002 109.916,120.335 111,121.5C 112.521,117.135 114.021,112.802 115.5,108.5C 116.978,108.238 118.311,108.571 119.5,109.5C 121.244,113.908 123.078,118.242 125,122.5C 125.499,117.845 125.666,113.179 125.5,108.5C 127.199,108.34 128.866,108.506 130.5,109C 132.507,117.526 134.174,117.36 135.5,108.5C 137.5,108.5 139.5,108.5 141.5,108.5C 141.5,113.5 141.5,118.5 141.5,123.5C 140.167,123.5 138.833,123.5 137.5,123.5C 137.66,121.801 137.494,120.134 137,118.5C 134.495,123.779 132.161,123.779 130,118.5C 129.506,120.134 129.34,121.801 129.5,123.5C 124.418,123.666 119.751,122.666 115.5,120.5C 115.5,121.5 115.5,122.5 115.5,123.5C 112.824,124.008 110.157,124.175 107.5,124C 106.15,122.282 104.983,120.448 104,118.5C 103.667,120.167 103.333,121.833 103,123.5C 101.951,124.517 100.784,124.684 99.5,124C 98.5286,118.928 98.1953,113.762 98.5,108.5 Z M 103.5,112.5 C 105.337,112.639 105.67,113.306 104.5,114.5C 103.702,114.043 103.369,113.376 103.5,112.5 Z"/></g>
<g><path style="opacity:0.082" fill="#dbc5ff" d="M 102.5,128.5 C 105.833,127.167 109.167,127.167 112.5,128.5C 110.517,128.157 109.183,128.824 108.5,130.5C 108.167,130.5 107.833,130.5 107.5,130.5C 103.551,130.307 103.551,129.807 107.5,129C 105.866,128.506 104.199,128.34 102.5,128.5 Z"/></g>
<g><path style="opacity:0.535" fill="#ac73ff" d="M 51.5,129.5 C 50.1667,129.5 48.8333,129.5 47.5,129.5C 47.5,131.5 47.5,133.5 47.5,135.5C 45.631,133.365 44.9644,130.698 45.5,127.5C 48.0821,127.025 50.0821,127.692 51.5,129.5 Z"/></g>
<g><path style="opacity:0.506" fill="#b079ff" d="M 63.5,127.5 C 69.6231,127.417 71.2898,129.917 68.5,135C 66.8659,135.494 65.1992,135.66 63.5,135.5C 63.5,132.833 63.5,130.167 63.5,127.5 Z M 65.5,130.5 C 67.337,130.639 67.6704,131.306 66.5,132.5C 65.7025,132.043 65.3691,131.376 65.5,130.5 Z"/></g>
<g><path style="opacity:0.222" fill="#d1b3ff" d="M 90.5,128.5 C 89.1667,128.5 88.5,129.167 88.5,130.5C 87.8333,131.167 87.1667,131.833 86.5,132.5C 86.1193,131.069 85.1193,130.236 83.5,130C 88.5409,128.992 88.2076,128.492 82.5,128.5C 82.5,130.833 82.5,133.167 82.5,135.5C 81.5269,133.052 81.1936,130.385 81.5,127.5C 84.7131,127.19 87.7131,127.523 90.5,128.5 Z"/></g>
<g><path style="opacity:0.778" fill="#a66aff" d="M 102.5,128.5 C 104.199,128.34 105.866,128.506 107.5,129C 103.551,129.807 103.551,130.307 107.5,130.5C 107.179,132.048 106.179,132.715 104.5,132.5C 104.719,133.675 104.386,134.675 103.5,135.5C 102.526,133.257 102.192,130.924 102.5,128.5 Z"/></g>
<g><path style="opacity:0.345" fill="#b37fff" d="M 52.5,127.5 C 53.7479,128.334 54.4146,129.667 54.5,131.5C 54.1667,132.833 53.8333,134.167 53.5,135.5C 52.52,132.914 52.1866,130.247 52.5,127.5 Z"/></g>
<g><path style="opacity:0.69" fill="#b07cff" d="M 55.5,127.5 C 57.8333,128.833 60.1667,128.833 62.5,127.5C 62.5,130.167 62.5,132.833 62.5,135.5C 60.1667,134.167 57.8333,134.167 55.5,135.5C 55.5,132.833 55.5,130.167 55.5,127.5 Z"/></g>
<g><path style="opacity:0.12" fill="#cfb1ff" d="M 76.5,128.5 C 74.6565,130.279 73.9898,132.612 74.5,135.5C 73.5269,133.052 73.1936,130.385 73.5,127.5C 74.791,127.263 75.791,127.596 76.5,128.5 Z"/></g>
<g><path style="opacity:0.533" fill="#cea2ff" d="M 51.5,129.5 C 51.5,130.5 51.5,131.5 51.5,132.5C 50.5,132.5 49.5,132.5 48.5,132.5C 48.7373,133.791 48.404,134.791 47.5,135.5C 47.5,133.5 47.5,131.5 47.5,129.5C 48.8333,129.5 50.1667,129.5 51.5,129.5 Z"/></g>
<g><path style="opacity:0.624" fill="#b379ff" d="M 74.5,135.5 C 73.9898,132.612 74.6565,130.279 76.5,128.5C 77.5832,128.461 78.5832,128.127 79.5,127.5C 80.48,130.086 80.8134,132.753 80.5,135.5C 78.3888,134.62 76.3888,134.62 74.5,135.5 Z"/></g>
<g><path style="opacity:0.702" fill="#ba86ff" d="M 139.5,132.5 C 139.5,131.833 139.5,131.167 139.5,130.5C 140.642,128.028 142.642,127.028 145.5,127.5C 145.851,129.869 146.018,132.203 146,134.5C 144.301,135.406 142.467,135.739 140.5,135.5C 140.737,134.209 140.404,133.209 139.5,132.5 Z"/></g>
<g><path style="opacity:0.78" fill="#b682ff" d="M 108.5,130.5 C 109.183,128.824 110.517,128.157 112.5,128.5C 114.652,129.077 114.985,130.244 113.5,132C 114.126,132.75 114.626,133.584 115,134.5C 115.186,132.1 115.686,129.766 116.5,127.5C 119.986,127.551 123.486,127.551 127,127.5C 127.945,127.905 128.612,128.572 129,129.5C 129.308,128.692 129.808,128.025 130.5,127.5C 131.48,130.086 131.813,132.753 131.5,135.5C 123.833,135.5 116.167,135.5 108.5,135.5C 108.5,133.833 108.5,132.167 108.5,130.5 Z M 124.5,129.5 C 125.434,130.568 125.768,131.901 125.5,133.5C 121.162,133.378 120.828,133.045 124.5,132.5C 124.5,131.5 124.5,130.5 124.5,129.5 Z"/></g>
<g><path style="opacity:0.716" fill="#b47cff" d="M 88.5,130.5 C 88.5,129.167 89.1667,128.5 90.5,128.5C 90.369,129.239 90.5357,129.906 91,130.5C 92.3333,127.833 93.6667,127.833 95,130.5C 95.4828,129.552 95.6495,128.552 95.5,127.5C 96.5,127.5 97.5,127.5 98.5,127.5C 97.8333,130.167 97.1667,132.833 96.5,135.5C 94.1795,134.375 91.8462,134.208 89.5,135C 88.6198,133.644 88.2865,132.144 88.5,130.5 Z"/></g>
<g><path style="opacity:0.652" fill="#af77ff" d="M 139.5,130.5 C 139.5,131.167 139.5,131.833 139.5,132.5C 139.586,133.496 139.252,134.329 138.5,135C 136.866,135.494 135.199,135.66 133.5,135.5C 133.5,132.833 133.5,130.167 133.5,127.5C 136.393,127.031 138.393,128.031 139.5,130.5 Z M 135.5,130.5 C 137.337,130.639 137.67,131.306 136.5,132.5C 135.702,132.043 135.369,131.376 135.5,130.5 Z"/></g>
<g><path style="opacity:0.529" fill="#a467ff" d="M 86.5,132.5 C 85.7611,132.369 85.0944,132.536 84.5,133C 85.624,133.249 86.624,133.749 87.5,134.5C 85.9547,135.452 84.288,135.785 82.5,135.5C 82.5,133.167 82.5,130.833 82.5,128.5C 88.2076,128.492 88.5409,128.992 83.5,130C 85.1193,130.236 86.1193,131.069 86.5,132.5 Z"/></g>
</svg>
